<svg id="Content" xmlns="http://www.w3.org/2000/svg" viewBox="0 0 636.1 226.02"><defs><style>.cls-1{fill:#fff;}</style></defs><path class="cls-1" d="M580.63,189c-16.85,0-29.41-4.7-37.46-12.34l61.22-33.48c21.94-12,31.52-25.46,31.52-47.76,0-10.72-4.13-41.29-63.3-41.29-73.13,0-84.45,66.59-84.45,97.15a73.74,73.74,0,0,0,1.41,14.32l-28,15.84c-10.15,5.75-14.93,7.56-19,7.56-9.77,0-13.36-7.86-11.85-16.44l14.13-79.9H492l6.74-37H451.36l6.55-37H413.45l-6.53,37.05H319.36c-39.29,0-58.31,26.22-58.31,53,0,14.94,6.49,27.41,23.81,37.86L324,170a9.91,9.91,0,0,1,4.63,10.2A10.6,10.6,0,0,1,318.18,189H195.29c-16.85,0-29.42-4.7-37.46-12.34L219,143.15c21.94-12,31.52-25.46,31.52-47.76,0-10.72-4.13-41.29-63.3-41.29-73.13,0-84.45,66.59-84.45,97.15a73,73,0,0,0,1.42,14.32l-28,15.84c-10.15,5.75-14.93,7.56-19,7.56-9.76,0-13.36-7.86-11.84-16.44L75.83,0H31.37L.77,173.55C-4.06,200.93,14.24,226,44.8,226c19.63,0,33.06-5.65,55.11-17.71l19.73-10.79c14.54,17.21,37.89,28.5,67.62,28.5H311.72c44.17,0,63.47-28.15,63.47-51.89,0-20.06-8.64-28.48-26-38.93l-38.9-23.48a10.28,10.28,0,0,1,5.31-19.09h84.74l-14.26,80.92c-4.83,27.38,13.47,52.47,44,52.47,19.64,0,33.07-5.65,55.11-17.71L505,197.52c14.54,17.21,37.89,28.5,67.62,28.5h56.95L636.1,189Zm-397-97.78c18.34,0,22.21,5.59,22.21,10.19,0,6.33-3.07,8.46-13.36,14.28L147.64,141C149.2,119.47,156.52,91.19,183.65,91.19Zm385.35,0c18.34,0,22.2,5.59,22.2,10.19,0,6.33-3.06,8.46-13.35,14.28L533,141C534.54,119.47,541.86,91.19,569,91.19Z"/></svg>